<?xml version="1.0" standalone="no"?>
<!DOCTYPE svg PUBLIC "-//W3C//DTD SVG 1.1//EN" "http://www.w3.org/Graphics/SVG/1.1/DTD/svg11.dtd" >
<svg xmlns="http://www.w3.org/2000/svg">
<metadata>
This is a custom SVG webfont generated by Font Squirrel.
Designer    : Thomas Huot-Marchand
Foundry     : Thomas Huot-Marchand / 256TM
</metadata>
<defs>
<font id="webfont6sSBxrRs" horiz-adv-x="504" >
<font-face units-per-em="1000" ascent="749" descent="-251" />
<missing-glyph horiz-adv-x="210" />
<glyph unicode=" "  horiz-adv-x="210" />
<glyph unicode="&#x09;" horiz-adv-x="210" />
<glyph unicode="&#xa0;" horiz-adv-x="210" />
<glyph unicode="!" horiz-adv-x="224" d="M182 0h-140v140h140v-140zM182 210h-140v490h140v-490z" />
<glyph unicode="&#x22;" horiz-adv-x="469" d="M182 490h-140v210h140v-210zM427 490h-140v210h140v-210z" />
<glyph unicode="#" horiz-adv-x="784" d="M741 140h-140v-140h-140v140h-140v-140h-139v140h-140v140h140v140h-140v140h140v140h139v-140h140v140h140v-140h140v-140h-140v-140h140v-140zM461 280v140h-140v-140h140z" />
<glyph unicode="$" d="M461 190q0 -68 -38.5 -121.5t-100.5 -74.5v-134h-140v134q-61 21 -98.5 74.5t-37.5 121.5v19h140v-19q0 -28 19.5 -47.5t46.5 -19.5q31 0 50 18.5t19 48.5q0 13 -2 20.5t-9.5 20.5t-28.5 26.5t-54 28.5q-36 17 -63 34t-54.5 44t-42.5 64.5t-15 84.5q0 64 36 116.5 t94 74.5v136h140v-133q61 -20 100 -73t39 -121v-24h-140v24q0 28 -18.5 46.5t-46.5 18.5q-26 0 -45 -19.5t-19 -45.5q0 -18 3 -28.5t24.5 -30.5t64.5 -39q38 -18 65 -35.5t55 -44t42.5 -63.5t14.5 -82z" />
<glyph unicode="%" horiz-adv-x="1099" d="M1057 192q0 -87 -61 -148.5t-149 -61.5q-86 0 -147 61.5t-61 148.5t61 148.5t147 61.5q88 0 149 -61.5t61 -148.5zM917 192q0 29 -20 49.5t-50 20.5q-28 0 -49 -21t-21 -49q0 -29 21 -49.5t49 -20.5q30 0 50 20.5t20 49.5zM459 508q0 -87 -61 -148.5t-147 -61.5 q-88 0 -149 61.5t-61 148.5q0 88 61 149t149 61q86 0 147 -61t61 -149zM319 508q0 29 -20 49.5t-48 20.5q-30 0 -50 -20.5t-20 -49.5t20 -49.5t50 -20.5q28 0 48 20.5t20 49.5zM833 700l-416 -700h-154l416 700h154z" />
<glyph unicode="&#x26;" horiz-adv-x="609" d="M252 718q79 0 135.5 -56.5t56.5 -136.5v-35h-140v35q0 22 -15.5 37.5t-36.5 15.5q-4 0 -7 -1q-19 -2 -32.5 -17t-13.5 -35v-52q0 -22 15.5 -37.5t37.5 -15.5h17h297v-140h-25h-80v-87q0 -87 -61.5 -149t-147.5 -62q-4 0 -10 0.5t-8 0.5q-81 7 -136.5 67.5t-55.5 142.5v17 q0 85 57 144q-40 53 -40 119v52q0 75 50.5 130.5t124.5 61.5q5 1 18 1zM321 193v87h-63h-6q-29 0 -49.5 -20.5t-20.5 -49.5v-17q0 -29 20.5 -49.5t49.5 -20.5h6q27 3 45 22.5t18 47.5z" />
<glyph unicode="'" horiz-adv-x="469" d="M182 490h-140v210h140v-210z" />
<glyph unicode="(" horiz-adv-x="364" d="M321 -140h-69q-87 0 -148.5 61.5t-61.5 148.5v560q0 87 61.5 148.5t148.5 61.5h69v-140h-69q-29 0 -49.5 -20.5t-20.5 -49.5v-560q0 -29 20.5 -49.5t49.5 -20.5h69v-140z" />
<glyph unicode=")" horiz-adv-x="364" d="M321 70q0 -87 -61.5 -148.5t-147.5 -61.5h-70v140h70q28 0 49 21t21 49v560q0 29 -20.5 49.5t-49.5 20.5h-70v140h70q86 0 147.5 -61.5t61.5 -148.5v-560z" />
<glyph unicode="*" horiz-adv-x="644" d="M609 440l-175 -58l108 -147l-113 -82l-108 148l-108 -148l-114 82l105 145l5 2l-175 58l42 133l175 -56v183h140v-183l175 56z" />
<glyph unicode="+" d="M462 280h-140v-140h-140v140h-140v139h140v141h140v-141h140v-139z" />
<glyph unicode="," horiz-adv-x="259" d="M217 0q0 -57 -29 -106t-79 -77l-80 117q21 7 34.5 25.5t13.5 40.5v140h140v-140z" />
<glyph unicode="-" d="M462 280h-420v140h420v-140z" />
<glyph unicode="." horiz-adv-x="224" d="M182 0h-140v140h140v-140z" />
<glyph unicode="/" d="M471 700l-289 -700h-150l290 700h149z" />
<glyph unicode="0" d="M461 193q0 -87 -61.5 -149t-147.5 -62q-87 0 -148.5 62t-61.5 149v315q0 88 61.5 149t148.5 61q86 0 147.5 -61t61.5 -149v-315zM321 193v315q0 29 -20.5 49.5t-48.5 20.5q-29 0 -49.5 -20.5t-20.5 -49.5v-315q0 -29 20.5 -49.5t49.5 -20.5t49 20.5t20 49.5z" />
<glyph unicode="1" d="M461 0h-419v140h140v420h-140v140h279v-560h140v-140z" />
<glyph unicode="2" d="M461 0h-419v143q242 291 256 309q15 20 18 29t3 32q0 26 -19 45.5t-45 19.5q-28 0 -46.5 -18.5t-18.5 -45.5v-24h-140v24q0 85 59.5 144.5t145.5 59.5q84 0 144 -60t60 -145q0 -48 -10.5 -77.5t-33.5 -61.5l-195 -234h241v-140z" />
<glyph unicode="3" d="M461 193q0 -87 -61.5 -149t-147.5 -62q-4 0 -10 0.5t-8 0.5q-81 7 -136.5 67.5t-55.5 142.5v17h64h44h32v-17q10 -24 29.5 -47t40.5 -23h6q26 3 44.5 23t18.5 47v35q0 13 -4 22.5t-13.5 15t-17.5 9t-22.5 4.5t-22.5 1.5t-23 0t-19 -0.5v84v56h21h32q12 0 21.5 3t15 11 t9 14t5 19.5t2 18.5t0 21t-0.5 18v6q-3 20 -17.5 33.5t-34.5 13.5h-4q-21 -1 -35 -16.5t-14 -36.5v-31v-4h-140v11v24q0 80 56.5 136.5t136.5 56.5q11 0 17 -1q74 -6 124.5 -61.5t50.5 -130.5v-52q0 -60 -36 -113q34 -34 43.5 -70.5t9.5 -96.5z" />
<glyph unicode="4" d="M461 140h-53v-140h-140v140h-226v142l160 418h206v-420h53v-140zM268 280v199l-78 -199h78z" />
<glyph unicode="5" d="M461 193q0 -87 -61.5 -149t-147.5 -62q-87 0 -148.5 62t-61.5 149v17h140v-17q0 -29 20.5 -49.5t49.5 -20.5t49 20.5t20 49.5v87q0 29 -20 49.5t-49 20.5q-27 0 -47.5 -17.5t-22.5 -43.5v-9h-140v420h402v-140h-262v-82q45 12 70 12q86 0 147.5 -61.5t61.5 -148.5v-87z " />
<glyph unicode="6" d="M461 193q0 -87 -61.5 -149t-147.5 -62q-87 0 -148.5 62t-61.5 149v35v9v271q0 86 61.5 148t148.5 62q86 0 147.5 -62t61.5 -148v-18h-140v18q0 29 -20.5 49.5t-48.5 20.5q-29 0 -49.5 -20.5t-20.5 -49.5v-82q36 12 70 12q86 0 147.5 -61t61.5 -149v-35zM321 193v35 q0 29 -20.5 49.5t-48.5 20.5q-29 0 -49.5 -20.5t-20.5 -49.5v-35q0 -29 20.5 -49.5t49.5 -20.5t49 20.5t20 49.5z" />
<glyph unicode="7" d="M461 559l-216 -559h-151l217 560h-269v140h419v-141z" />
<glyph unicode="8" d="M461 193q0 -87 -61.5 -149t-147.5 -62q-4 0 -10 0.5t-8 0.5q-81 7 -136.5 67.5t-55.5 142.5v35q0 82 57 145q-40 51 -40 117v35q0 80 56.5 136.5t136.5 56.5q11 0 17 -1q74 -6 124.5 -61.5t50.5 -130.5v-35q0 -67 -41 -117q58 -63 58 -145v-35zM304 490v35 q0 22 -15.5 37.5t-36.5 15.5q-4 0 -7 -1q-19 -2 -32.5 -17t-13.5 -35v-35q0 -22 15.5 -37t37.5 -15h6q19 2 32.5 17.5t13.5 34.5zM321 193v35q0 29 -20.5 49.5t-48.5 20.5h-4l-3 -1q-26 -2 -44.5 -22.5t-18.5 -46.5v-35q0 -29 20.5 -49.5t49.5 -20.5h6q26 3 44.5 23t18.5 47 z" />
<glyph unicode="9" d="M42 507q0 87 61.5 149t148.5 62q86 0 147.5 -62t61.5 -149v-35v-8v-272q0 -86 -61.5 -148t-147.5 -62q-87 0 -148.5 62t-61.5 148v18h140v-18q0 -29 20.5 -49.5t49.5 -20.5q28 0 48.5 20.5t20.5 49.5v83q-39 -13 -69 -13q-87 0 -148.5 61.5t-61.5 148.5v35zM182 507v-35 q0 -29 20.5 -49.5t49.5 -20.5q28 0 48.5 20.5t20.5 49.5v35q0 29 -20 49.5t-49 20.5t-49.5 -20.5t-20.5 -49.5z" />
<glyph unicode=":" horiz-adv-x="224" d="M182 0h-140v140h140v-140zM182 280h-140v140h140v-140z" />
<glyph unicode=";" horiz-adv-x="259" d="M217 280h-140v140h140v-140zM217 0q0 -57 -29 -106t-79 -77l-80 117q21 7 34.5 25.5t13.5 40.5v140h140v-140z" />
<glyph unicode="&#x3c;" d="M24 350l276 350h162l-274 -350l274 -350h-162z" />
<glyph unicode="=" horiz-adv-x="644" d="M601 420h-559v140h559v-140zM601 140h-559v140h559v-140z" />
<glyph unicode="&#x3e;" d="M186 700l276 -350l-276 -350h-162l274 350l-274 350h162z" />
<glyph unicode="?" d="M457 513q0 -99 -101 -188q-28 -24 -38.5 -35t-18.5 -31t-8 -49h-140q1 75 26 121t86 99q54 46 54 83q0 26 -20 45.5t-46 19.5t-44.5 -18.5t-18.5 -45.5v-24h-140v24q0 85 59 144.5t144 59.5t145.5 -60t60.5 -145zM291 -1h-140v141h140v-141z" />
<glyph unicode="@" horiz-adv-x="1134" d="M567 859q203 0 346 -144t143 -347v-18q0 -87 -61.5 -148.5t-148.5 -61.5q-81 0 -139 55q-60 -55 -140 -55q-87 0 -148.5 61.5t-61.5 148.5v18q0 88 61.5 149t148.5 61t148.5 -61.5t61.5 -148.5v-18q0 -29 20 -49.5t49 -20.5t49.5 20.5t20.5 49.5v18q0 145 -102.5 247.5 t-246.5 102.5q-145 0 -247.5 -102.5t-102.5 -247.5v-18q0 -145 102.5 -247.5t247.5 -102.5h279v-140h-279q-99 0 -190 39t-156.5 104.5t-104.5 156.5t-39 190v18q0 100 39 191t104.5 156.5t156.5 104.5t190 39zM567 280q29 0 49.5 20.5t20.5 49.5v18q0 30 -20.5 50t-49.5 20 t-49.5 -20t-20.5 -50v-18q0 -29 20.5 -49.5t49.5 -20.5z" />
<glyph unicode="A" d="M482 0h-143l-18 105h-139l-20 -105h-141l125 700h210zM296 245l-45 249l-45 -249h90z" />
<glyph unicode="B" d="M461 221q0 -92 -62.5 -156.5t-153.5 -64.5h-203v700h202q83 0 141.5 -58.5t58.5 -141.5q0 -73 -45 -127q62 -62 62 -152zM304 500q0 25 -18 42.5t-42 17.5h-62v-122h62q26 0 43 18t17 44zM321 221q0 31 -22.5 54t-53.5 23h-63v-158h63q33 0 54.5 23.5t21.5 57.5z" />
<glyph unicode="C" d="M252 718q86 0 147.5 -62t61.5 -148v-18h-140v18q0 29 -20.5 49.5t-48.5 20.5q-29 0 -49.5 -20.5t-20.5 -49.5v-315q0 -29 20.5 -49.5t49.5 -20.5t49 20.5t20 49.5v17h140v-17q0 -87 -61.5 -149t-147.5 -62q-87 0 -148.5 62t-61.5 149v315q0 86 61.5 148t148.5 62z" />
<glyph unicode="D" d="M461 245q0 -101 -71.5 -173t-172.5 -72h-175v700h175q101 0 172.5 -72t71.5 -173v-210zM321 245v210q0 44 -30.5 74.5t-73.5 30.5h-35v-420h35q43 0 73.5 31t30.5 74z" />
<glyph unicode="E" d="M462 0h-420v700h420v-140h-280v-140h209v-140h-209v-140h280v-140z" />
<glyph unicode="F" d="M462 560h-280v-140h209v-140h-209v-280h-140v700h420v-140z" />
<glyph unicode="G" d="M461 193q0 -87 -61.5 -149t-147.5 -62q-87 0 -148.5 62t-61.5 149v315q0 86 61.5 148t148.5 62q86 0 147.5 -62t61.5 -148v-18h-140v18q0 29 -20.5 49.5t-48.5 20.5q-29 0 -49.5 -20.5t-20.5 -49.5v-315q0 -29 20.5 -49.5t49.5 -20.5t49 20.5t20 49.5v87h-69v140h209 v-227z" />
<glyph unicode="H" d="M462 0h-140v280h-140v-280h-140v700h140v-280h140v280h140v-700z" />
<glyph unicode="I" horiz-adv-x="224" d="M182 0h-140v700h140v-700z" />
<glyph unicode="J" d="M461 193q0 -87 -61.5 -149t-147.5 -62q-87 0 -148.5 62t-61.5 149v17h140v-17q0 -29 20.5 -49.5t49.5 -20.5t49 20.5t20 49.5v507h140v-507z" />
<glyph unicode="K" d="M475 0h-149l-89 251l-55 -110v-141h-140v700h140v-246l122 246h157l-137 -276z" />
<glyph unicode="L" d="M461 0h-419v700h140v-560h279v-140z" />
<glyph unicode="M" horiz-adv-x="679" d="M636 0h-140v381l-88 -241h-138l-88 241v-381h-140v700h171l126 -341l127 341h170v-700z" />
<glyph unicode="N" d="M461 0h-161l-118 347v-347h-140v700h168l111 -330v330h140v-700z" />
<glyph unicode="O" d="M461 193q0 -87 -61.5 -149t-147.5 -62q-87 0 -148.5 62t-61.5 149v315q0 88 61.5 149t148.5 61q86 0 147.5 -61t61.5 -149v-315zM321 193v315q0 29 -20.5 49.5t-48.5 20.5q-29 0 -49.5 -20.5t-20.5 -49.5v-315q0 -29 20.5 -49.5t49.5 -20.5t49 20.5t20 49.5z" />
<glyph unicode="P" d="M461 455q0 -102 -71.5 -173.5t-172.5 -71.5h-35v-210h-140v700h175q101 0 172.5 -72t71.5 -173zM321 455q0 44 -30.5 74.5t-73.5 30.5h-35v-210h35q44 0 74 30.5t30 74.5z" />
<glyph unicode="Q" d="M476 -38l-99 -99l-119 119v1q-4 -1 -6 -1q-87 0 -148.5 62t-61.5 149v318q0 87 61.5 148.5t148.5 61.5q86 0 147.5 -61.5t61.5 -148.5v-318q0 -93 -65 -152zM321 193v318q0 29 -20.5 49.5t-48.5 20.5q-29 0 -49.5 -20.5t-20.5 -49.5v-318q0 -29 20.5 -49.5t49.5 -20.5 t49 20.5t20 49.5z" />
<glyph unicode="R" d="M466 0h-148l-77 211q-10 0 -14 -1h-45v-210h-140v700h175q101 0 172.5 -72t71.5 -173q0 -115 -91 -192zM321 455q0 44 -30.5 74.5t-73.5 30.5h-35v-210h35q44 0 74 30.5t30 74.5z" />
<glyph unicode="S" d="M459 190q0 -87 -60 -147t-148 -60q-85 0 -145.5 60.5t-60.5 146.5v20h140v-20q0 -28 19 -47.5t47 -19.5q30 0 49 19t19 48q0 18 -3 28.5t-25 29t-66 38.5q-36 17 -62.5 34t-54.5 44t-43 64.5t-15 84.5q0 85 60 145t145 60q86 0 145 -59.5t59 -144.5v-24h-140v24 q0 27 -18.5 45.5t-45.5 18.5q-26 0 -45.5 -19.5t-19.5 -45.5q0 -18 3 -28.5t25 -30.5t65 -39q38 -18 65 -35.5t54.5 -44t42 -63.5t14.5 -82z" />
<glyph unicode="T" d="M461 560h-140v-560h-139v560h-140v140h419v-140z" />
<glyph unicode="U" d="M461 193q0 -87 -61.5 -149t-147.5 -62q-87 0 -148.5 62t-61.5 149v507h140v-507q0 -29 20.5 -49.5t49.5 -20.5t49 20.5t20 49.5v507h140v-507z" />
<glyph unicode="V" d="M482 700l-126 -700h-210l-125 700h141l89 -494l88 494h143z" />
<glyph unicode="W" horiz-adv-x="854" d="M817 700l-125 -700h-210l-55 303l-54 -303h-211l-124 700h141l89 -494l88 494h143l88 -494l88 494h142z" />
<glyph unicode="X" d="M471 700l-121 -350l121 -349h-147l-72 205l-71 -205h-147l120 349l-120 350h147l71 -206l72 206h147z" />
<glyph unicode="Y" d="M473 700l-151 -483v-217h-140v217l-150 483h147l73 -238l74 238h147z" />
<glyph unicode="Z" d="M461 0h-419v146l258 414h-258v140h419v-145l-258 -415h258v-140z" />
<glyph unicode="[" horiz-adv-x="399" d="M357 -140h-315v980h315v-140h-175v-700h175v-140z" />
<glyph unicode="\" d="M322 0l-288 700h148l290 -700h-150z" />
<glyph unicode="]" horiz-adv-x="399" d="M359 -140h-316v140h175v700h-175v140h316v-980z" />
<glyph unicode="^" d="M112 700v140h279v-140h-279z" />
<glyph unicode="_" horiz-adv-x="784" d="M741 -140h-699v140h699v-140z" />
<glyph unicode="`" horiz-adv-x="514" d="M42 840h157l140 -140h-157z" />
<glyph unicode="a" d="M461 0h-140v210h-139v-210h-140v508q0 88 61.5 149t148.5 61q86 0 147.5 -61t61.5 -149v-508zM321 350v158q0 29 -20.5 49.5t-48.5 20.5q-29 0 -49.5 -20.5t-20.5 -49.5v-158h139z" />
<glyph unicode="b" d="M461 221q0 -92 -62.5 -156.5t-153.5 -64.5h-203v700h202q83 0 141.5 -58.5t58.5 -141.5q0 -73 -45 -127q62 -62 62 -152zM304 500q0 25 -18 42.5t-42 17.5h-62v-122h62q26 0 43 18t17 44zM321 221q0 31 -22.5 54t-53.5 23h-63v-158h63q33 0 54.5 23.5t21.5 57.5z" />
<glyph unicode="c" d="M252 718q86 0 147.5 -62t61.5 -148v-18h-140v18q0 29 -20.5 49.5t-48.5 20.5q-29 0 -49.5 -20.5t-20.5 -49.5v-315q0 -29 20.5 -49.5t49.5 -20.5t49 20.5t20 49.5v17h140v-17q0 -87 -61.5 -149t-147.5 -62q-87 0 -148.5 62t-61.5 149v315q0 86 61.5 148t148.5 62z" />
<glyph unicode="d" d="M461 245q0 -101 -71.5 -173t-172.5 -72h-175v700h175q101 0 172.5 -72t71.5 -173v-210zM321 245v210q0 44 -30.5 74.5t-73.5 30.5h-35v-420h35q43 0 73.5 31t30.5 74z" />
<glyph unicode="e" d="M461 193q0 -87 -61.5 -148.5t-147.5 -61.5q-87 0 -148.5 61.5t-61.5 148.5v315q0 86 61.5 148t148.5 62q86 0 147.5 -62t61.5 -148v-228h-279v-87q0 -29 20.5 -49.5t49.5 -20.5t49 20.5t20 49.5v17h140v-17zM321 420v88q0 29 -20.5 49.5t-48.5 20.5q-29 0 -49.5 -20.5 t-20.5 -49.5v-88h139z" />
<glyph unicode="f" d="M461 490h-140v18q0 29 -20.5 49.5t-48.5 20.5q-29 0 -49.5 -20.5t-20.5 -49.5v-158h209v-140h-209v-210h-140v508q0 88 61.5 149t148.5 61q86 0 147.5 -61t61.5 -149v-18z" />
<glyph unicode="g" d="M461 193q0 -87 -61.5 -149t-147.5 -62q-87 0 -148.5 62t-61.5 149v315q0 86 61.5 148t148.5 62q86 0 147.5 -62t61.5 -148v-18h-140v18q0 29 -20.5 49.5t-48.5 20.5q-29 0 -49.5 -20.5t-20.5 -49.5v-315q0 -29 20.5 -49.5t49.5 -20.5t49 20.5t20 49.5v87h-69v140h209 v-227z" />
<glyph unicode="h" d="M461 0h-140v280h-139v-280h-140v700h140v-280h139v280h140v-700z" />
<glyph unicode="i" horiz-adv-x="364" d="M322 0h-280v140h70v420h-70v140h280v-140h-70v-420h70v-140z" />
<glyph unicode="j" d="M461 193q0 -87 -61.5 -149t-147.5 -62q-87 0 -148.5 62t-61.5 149v17h140v-17q0 -29 20.5 -49.5t49.5 -20.5t49 20.5t20 49.5v367h-139v140h279v-507z" />
<glyph unicode="k" d="M475 0h-149l-89 251l-55 -110v-141h-140v700h140v-246l122 246h157l-137 -276z" />
<glyph unicode="l" d="M42 193v507h140v-507q0 -29 20.5 -49.5t49.5 -20.5t49 20.5t20 49.5v17h140v-17q0 -87 -61.5 -149t-147.5 -62q-87 0 -148.5 62t-61.5 149z" />
<glyph unicode="m" horiz-adv-x="784" d="M741 0h-140v508q0 29 -20.5 49.5t-49.5 20.5t-49.5 -21t-20.5 -49v-508h-140v508q0 29 -20.5 49.5t-48.5 20.5q-29 0 -49.5 -20.5t-20.5 -49.5v-508h-140v508q0 86 61.5 148t148.5 62q77 0 139 -54q64 54 140 54q87 0 148.5 -62t61.5 -148v-508z" />
<glyph unicode="n" d="M461 0h-140v508q0 29 -20.5 49.5t-48.5 20.5q-29 0 -49.5 -20.5t-20.5 -49.5v-508h-140v508q0 88 61.5 149t148.5 61q86 0 147.5 -61t61.5 -149v-508z" />
<glyph unicode="o" d="M461 193q0 -87 -61.5 -149t-147.5 -62q-87 0 -148.5 62t-61.5 149v315q0 88 61.5 149t148.5 61q86 0 147.5 -61t61.5 -149v-315zM321 193v315q0 29 -20.5 49.5t-48.5 20.5q-29 0 -49.5 -20.5t-20.5 -49.5v-315q0 -29 20.5 -49.5t49.5 -20.5t49 20.5t20 49.5z" />
<glyph unicode="p" d="M461 455q0 -102 -71.5 -173.5t-172.5 -71.5h-35v-210h-140v700h175q101 0 172.5 -72t71.5 -173zM321 455q0 44 -30.5 74.5t-73.5 30.5h-35v-210h35q44 0 74 30.5t30 74.5z" />
<glyph unicode="q" d="M476 -38l-99 -99l-119 119v1q-4 -1 -6 -1q-87 0 -148.5 62t-61.5 149v318q0 87 61.5 148.5t148.5 61.5q86 0 147.5 -61.5t61.5 -148.5v-318q0 -93 -65 -152zM321 193v318q0 29 -20.5 49.5t-48.5 20.5q-29 0 -49.5 -20.5t-20.5 -49.5v-318q0 -29 20.5 -49.5t49.5 -20.5 t49 20.5t20 49.5z" />
<glyph unicode="r" d="M461 490h-140v21q0 29 -20.5 49.5t-48.5 20.5q-29 0 -49.5 -20.5t-20.5 -49.5v-511h-140v511q0 87 61.5 148.5t148.5 61.5q86 0 147.5 -61.5t61.5 -148.5v-21z" />
<glyph unicode="s" d="M392 700h70v-140h-70q-29 0 -49.5 -20.5t-20.5 -49.5v-280q0 -87 -61.5 -148.5t-148.5 -61.5h-70v140h70q29 0 49.5 20.5t20.5 49.5v280q0 87 61.5 148.5t148.5 61.5z" />
<glyph unicode="t" d="M461 193q0 -87 -61.5 -149t-147.5 -62q-87 0 -148.5 62t-61.5 149v507h140v-140h209v-140h-209v-227q0 -29 20.5 -49.5t49.5 -20.5t49 20.5t20 49.5v17h140v-17z" />
<glyph unicode="u" d="M461 193q0 -87 -61.5 -149t-147.5 -62q-87 0 -148.5 62t-61.5 149v507h140v-507q0 -29 20.5 -49.5t49.5 -20.5t49 20.5t20 49.5v507h140v-507z" />
<glyph unicode="v" d="M482 700l-126 -700h-210l-125 700h141l89 -494l88 494h143z" />
<glyph unicode="w" horiz-adv-x="784" d="M741 193q0 -87 -61.5 -149t-148.5 -62q-80 0 -140 54q-59 -54 -139 -54q-87 0 -148.5 62t-61.5 149v507h140v-507q0 -29 20.5 -49.5t49.5 -20.5t49 20.5t20 49.5v507h140v-507q0 -29 20.5 -49.5t49.5 -20.5t49.5 20.5t20.5 49.5v507h140v-507z" />
<glyph unicode="x" d="M471 700l-121 -350l121 -349h-147l-72 205l-71 -205h-147l120 349l-120 350h147l71 -206l72 206h147z" />
<glyph unicode="y" d="M461 455q0 -67 -38.5 -121.5t-101.5 -77.5v-256h-139v256q-63 23 -101.5 77.5t-38.5 121.5v245h140v-245q0 -29 20.5 -49.5t49.5 -20.5q28 0 48.5 20.5t20.5 49.5v245h140v-245z" />
<glyph unicode="z" d="M461 0h-419v146l258 414h-258v140h419v-145l-258 -415h258v-140z" />
<glyph unicode="{" horiz-adv-x="469" d="M426 -140h-70q-86 0 -147.5 61.5t-61.5 148.5v140q0 29 -20.5 49.5t-49.5 20.5h-35v140h35q29 0 49.5 21t20.5 49v140q0 87 61.5 148.5t147.5 61.5h70v-140h-70q-29 0 -49.5 -20.5t-20.5 -49.5v-140q0 -83 -54 -140q54 -57 54 -140v-140q0 -28 21 -49t49 -21h70v-140z " />
<glyph unicode="|" horiz-adv-x="224" d="M182 -280h-140v1120h140v-1120z" />
<glyph unicode="}" horiz-adv-x="469" d="M426 280h-35q-29 0 -49.5 -20.5t-20.5 -49.5v-140q0 -87 -61.5 -148.5t-147.5 -61.5h-70v140h70q28 0 49 21t21 49v140q0 82 53 140q-53 58 -53 140v140q0 29 -20.5 49.5t-49.5 20.5h-70v140h70q86 0 147.5 -61.5t61.5 -148.5v-140q0 -28 20.5 -49t49.5 -21h35v-140z" />
<glyph unicode="~" horiz-adv-x="514" d="M77 770l71 140h279l-71 -140h-279z" />
<glyph unicode="&#xa1;" horiz-adv-x="224" d="M182 560h-140v140h140v-140zM182 0h-140v490h140v-490z" />
<glyph unicode="&#xa2;" horiz-adv-x="514" d="M461 193q0 -67 -38.5 -122t-101.5 -77v-134h-139v134q-63 22 -101.5 77t-38.5 122v315q0 67 38.5 121t101.5 77v134h139v-134q62 -21 101 -76t39 -122v-18h-140v18q0 3 -0.5 7.5t-4 16.5t-10 21.5t-20.5 17t-34 7.5q-29 0 -49.5 -20.5t-20.5 -49.5v-315q0 -29 20.5 -49.5 t49.5 -20.5t49 20.5t20 49.5v17h140v-17z" />
<glyph unicode="&#xa3;" horiz-adv-x="515" d="M462 0h-420v140h70v140h-70v140h70v70q0 87 61.5 148.5t148.5 61.5h70v-140h-70q-29 0 -49.5 -20.5t-20.5 -49.5v-70h139v-140h-139v-140h210v-140z" />
<glyph unicode="&#xa5;" horiz-adv-x="536" d="M473 702l-109 -350h98v-141h-136h-4v-211h-140v207v4h-140v141h98l-108 350h147l73 -238l74 238h147z" />
<glyph unicode="&#xa7;" horiz-adv-x="549" d="M501 385q0 -46 -19 -92q-15 -41 -55 -76q-3 -3 -4 -6q-2 0 -4 -2q48 -39 66 -82q16 -37 16 -98v-28q-2 -16 -4 -26q-17 -81 -77.5 -133t-144.5 -52h-7q-9 0 -12 1q-88 7 -148 72.5t-60 154.5v52h140v-1v-51q0 -36 25 -62t62 -26q36 0 61 26t25 62q0 51 -11.5 72.5 t-52.5 43.5q-20 10 -62 24q-15 3 -46 16q-64 27 -102.5 84.5t-38.5 126.5q0 50 21.5 97t60.5 80q-41 32 -59.5 67.5t-22.5 86.5v9v5v9v10q0 21 1 31q1 18 13 52q25 65 82.5 106.5t130.5 41.5q79 0 141.5 -50.5t79.5 -126.5q5 -20 5 -51v-52h-140v52q0 18 -2 27 q-10 27 -33.5 44t-50.5 17q-37 0 -62 -26t-25 -62q0 -49 11.5 -71.5t54.5 -44.5q19 -10 58.5 -22.5t48.5 -16.5q64 -29 102 -86t38 -126zM188 385q0 -36 25 -61.5t62 -25.5q36 0 61 25.5t25 61.5t-25 62t-61 26q-37 0 -62 -26t-25 -62z" />
<glyph unicode="&#xa8;" horiz-adv-x="514" d="M462 700h-140v140h140v-140zM252 700h-140v140h140v-140z" />
<glyph unicode="&#xa9;" horiz-adv-x="724" d="M676 403q0 -130 -92 -222.5t-223 -92.5q-130 0 -221.5 92.5t-91.5 222.5t91.5 222.5t221.5 92.5q131 0 223 -92.5t92 -222.5zM606 403q0 101 -71.5 173t-173.5 72q-100 0 -171.5 -72t-71.5 -173t71.5 -173t171.5 -72q102 0 173.5 72t71.5 173zM520 511l-51 -52 q-16 26 -42.5 42t-55.5 16q-47 0 -80 -33.5t-33 -80.5t33 -80.5t80 -33.5q59 0 95 51l51 -49q-57 -73 -146 -73q-76 0 -129.5 54t-53.5 131q0 76 53.5 130t129.5 54q43 0 82.5 -20.5t66.5 -55.5z" />
<glyph unicode="&#xaa;" horiz-adv-x="514" d="M461 350h-140v104l-139 1v-105h-140v275q0 87 61.5 148.5t148.5 61.5q86 0 147.5 -61.5t61.5 -148.5v-275zM321 594v31q0 28 -20.5 49t-48.5 21q-29 0 -49.5 -21t-20.5 -49v-30z" />
<glyph unicode="&#xab;" horiz-adv-x="574" d="M7 350l140 210h165l-138 -210l138 -210h-165zM255 350l140 210h165l-138 -210l138 -210h-165z" />
<glyph unicode="&#xad;" d="M462 280h-420v140h420v-140z" />
<glyph unicode="&#xae;" horiz-adv-x="724" d="M676 403q0 -130 -92 -222.5t-223 -92.5q-130 0 -221.5 92.5t-91.5 222.5t91.5 222.5t221.5 92.5q131 0 223 -92.5t92 -222.5zM606 403q0 101 -71.5 173t-173.5 72q-100 0 -171.5 -72t-71.5 -173t71.5 -173t171.5 -72q102 0 173.5 72t71.5 173zM513 228h-75l-36 105h-99 v-105h-71v350h157q51 0 87.5 -36t36.5 -85q0 -57 -47 -96zM443 457q0 21 -16.5 36t-37.5 15h-86v-105h86q21 0 37.5 16t16.5 38z" />
<glyph unicode="&#xaf;" horiz-adv-x="550" d="M499 700h-457v140h457v-140z" />
<glyph unicode="&#xb0;" horiz-adv-x="514" d="M461 490q0 -87 -61.5 -148.5t-147.5 -61.5q-87 0 -148.5 61.5t-61.5 148.5t61.5 148.5t148.5 61.5q86 0 147.5 -61.5t61.5 -148.5zM321 490q0 29 -20.5 49.5t-48.5 20.5q-29 0 -49.5 -20.5t-20.5 -49.5t20.5 -49.5t49.5 -20.5t49 20.5t20 49.5z" />
<glyph unicode="&#xb1;" horiz-adv-x="553" d="M462 0h-420v140h420v-140zM462 420h-140v-140h-140v140h-140v139h140v141h140v-141h140v-139z" />
<glyph unicode="&#xb2;" d="M461 0h-419v143q242 291 256 309q15 20 18 29t3 32q0 26 -19 45.5t-45 19.5q-28 0 -46.5 -18.5t-18.5 -45.5v-24h-140v24q0 85 59.5 144.5t145.5 59.5q84 0 144 -60t60 -145q0 -48 -10.5 -77.5t-33.5 -61.5l-195 -234h241v-140z" />
<glyph unicode="&#xb3;" d="M461 193q0 -87 -61.5 -149t-147.5 -62q-4 0 -10 0.5t-8 0.5q-81 7 -136.5 67.5t-55.5 142.5v17h64h44h32v-17q10 -24 29.5 -47t40.5 -23h6q26 3 44.5 23t18.5 47v35q0 13 -4 22.5t-13.5 15t-17.5 9t-22.5 4.5t-22.5 1.5t-23 0t-19 -0.5v84v56h21h32q12 0 21.5 3t15 11 t9 14t5 19.5t2 18.5t0 21t-0.5 18v6q-3 20 -17.5 33.5t-34.5 13.5h-4q-21 -1 -35 -16.5t-14 -36.5v-31v-4h-140v11v24q0 80 56.5 136.5t136.5 56.5q11 0 17 -1q74 -6 124.5 -61.5t50.5 -130.5v-52q0 -60 -36 -113q34 -34 43.5 -70.5t9.5 -96.5z" />
<glyph unicode="&#xb4;" horiz-adv-x="514" d="M321 840h158l-140 -140h-157z" />
<glyph unicode="&#xb6;" horiz-adv-x="654" d="M602 -200h-140v900h-52v-900h-140v620h-16q-88 0 -149.5 62t-61.5 148q0 87 61.5 148.5t149.5 61.5h348v-1040zM270 560v140h-16q-30 0 -50.5 -20.5t-20.5 -49.5t20.5 -49.5t50.5 -20.5h16z" />
<glyph unicode="&#xb8;" horiz-adv-x="847" d="M182 -140v209h140v-209h-140z" />
<glyph unicode="&#xb9;" d="M461 0h-419v140h140v420h-140v140h279v-560h140v-140z" />
<glyph unicode="&#xba;" horiz-adv-x="514" d="M466 542q0 -87 -61 -148.5t-147 -61.5q-88 0 -149 61.5t-61 148.5v83q0 87 61 148.5t149 61.5q86 0 147 -61.5t61 -148.5v-83zM326 542v83q0 28 -20 49t-48 21q-29 0 -49.5 -21t-20.5 -49v-83q0 -29 20 -49.5t50 -20.5q28 0 48 20.5t20 49.5z" />
<glyph unicode="&#xbb;" horiz-adv-x="574" d="M174 560l140 -210l-140 -210h-166l139 210l-139 210h166zM422 560l140 -210l-140 -210h-166l139 210l-139 210h166z" />
<glyph unicode="&#xbf;" d="M352 559h-141v141h141v-141zM457 185q0 -86 -60 -145.5t-146 -59.5q-84 0 -143.5 60.5t-59.5 145.5q0 102 99 188q27 24 37.5 35t18.5 31t8 49h141q0 -75 -25 -120.5t-88 -100.5q-51 -45 -51 -82q0 -26 19 -46t44 -20q28 0 47 18.5t19 46.5v24h140v-24z" />
<glyph unicode="&#xc0;" d="M59 840h157l140 -140h-157zM482 0h-143l-18 105h-139l-20 -105h-141l125 700h210zM296 245l-45 249l-45 -249h90z" />
<glyph unicode="&#xc1;" d="M482 0h-143l-18 105h-139l-20 -105h-141l125 700h210zM296 245l-45 249l-45 -249h90zM284 840h159l-140 -140h-157z" />
<glyph unicode="&#xc2;" d="M112 700v140h279v-140h-279zM482 0h-143l-18 105h-139l-20 -105h-141l125 700h210zM296 245l-45 249l-45 -249h90z" />
<glyph unicode="&#xc3;" d="M77 700l71 140h279l-71 -140h-279zM482 0h-143l-18 105h-139l-20 -105h-141l125 700h210zM296 245l-45 249l-45 -249h90z" />
<glyph unicode="&#xc4;" d="M427 700h-140v140h140v-140zM217 700h-140v140h140v-140zM482 0h-143l-18 105h-139l-20 -105h-141l125 700h210zM296 245l-45 249l-45 -249h90z" />
<glyph unicode="&#xc5;" d="M482 0h-143l-18 105h-139l-20 -105h-141l125 700h210zM296 245l-45 249l-45 -249h90zM360 768q0 -44 -30.5 -75t-73.5 -31q-44 0 -74.5 31t-30.5 75q0 43 30.5 74.5t74.5 31.5q43 0 73.5 -31.5t30.5 -74.5z" />
<glyph unicode="&#xc6;" horiz-adv-x="794" d="M741 193q0 -87 -61.5 -149t-148.5 -62q-86 0 -148 62t-62 149v87h-139v-280h-140v508q0 88 61.5 149t148.5 61q77 0 139 -54q64 54 140 54q87 0 148.5 -62t61.5 -148v-228h-205h-75v-87q0 -29 20.5 -49.5t49.5 -20.5t49.5 20.5t20.5 49.5v17h140v-17zM601 420v88 q0 29 -20.5 49.5t-49.5 20.5t-49.5 -21t-20.5 -49v-88h140zM321 420v88q0 29 -20.5 49.5t-48.5 20.5q-29 0 -49.5 -20.5t-20.5 -49.5v-88h139z" />
<glyph unicode="&#xc7;" d="M175 -140v134q-63 21 -101.5 75.5t-38.5 123.5v315q0 86 61.5 148t148.5 62q86 0 147.5 -62t61.5 -148v-18h-140v18q0 29 -20.5 49.5t-48.5 20.5q-29 0 -49.5 -20.5t-20.5 -49.5v-315q0 -29 20.5 -49.5t49.5 -20.5t49 20.5t20 49.5v17h140v-17q0 -68 -39 -123t-100 -76 v-134h-140z" />
<glyph unicode="&#xc8;" d="M462 0h-420v700h420v-140h-280v-140h209v-140h-209v-140h280v-140zM69 840h156l141 -140h-157z" />
<glyph unicode="&#xc9;" d="M462 0h-420v700h420v-140h-280v-140h209v-140h-209v-140h280v-140zM277 840h159l-140 -140h-157z" />
<glyph unicode="&#xca;" d="M112 700v140h279v-140h-279zM462 0h-420v700h420v-140h-280v-140h209v-140h-209v-140h280v-140z" />
<glyph unicode="&#xcb;" d="M427 700h-140v140h140v-140zM217 700h-140v140h140v-140zM462 0h-420v700h420v-140h-280v-140h209v-140h-209v-140h280v-140z" />
<glyph unicode="&#xcc;" horiz-adv-x="234" d="M-66 840h157l140 -140h-157zM182 0h-140v700h140v-700z" />
<glyph unicode="&#xcd;" horiz-adv-x="234" d="M143 840h158l-140 -140h-157zM182 0h-140v700h140v-700z" />
<glyph unicode="&#xce;" horiz-adv-x="234" d="M182 0h-140v700h140v-700zM-22 700v140h278v-140h-278z" />
<glyph unicode="&#xcf;" horiz-adv-x="234" d="M293 700h-140v140h140v-140zM83 700h-140v140h140v-140zM182 0h-140v700h140v-700z" />
<glyph unicode="&#xd0;" horiz-adv-x="619" d="M567 244q0 -103 -71 -173.5t-174 -70.5h-209v280h-70v140h70v280h209q104 0 174.5 -71t70.5 -174v-211zM429 245v210q0 44 -31 74.5t-76 30.5h-68v-140h68v-140h-68v-141h68q45 0 76 31t31 75z" />
<glyph unicode="&#xd1;" d="M77 700l71 140h279l-71 -140h-279zM461 0h-161l-118 347v-347h-140v700h168l111 -330v330h140v-700z" />
<glyph unicode="&#xd2;" d="M461 193q0 -87 -61.5 -149t-147.5 -62q-87 0 -148.5 62t-61.5 149v315q0 88 61.5 149t148.5 61q86 0 147.5 -61t61.5 -149v-315zM321 193v315q0 29 -20.5 49.5t-48.5 20.5q-29 0 -49.5 -20.5t-20.5 -49.5v-315q0 -29 20.5 -49.5t49.5 -20.5t49 20.5t20 49.5zM34 840h156 l141 -140h-157z" />
<glyph unicode="&#xd3;" d="M461 193q0 -87 -61.5 -149t-147.5 -62q-87 0 -148.5 62t-61.5 149v315q0 88 61.5 149t148.5 61q86 0 147.5 -61t61.5 -149v-315zM321 193v315q0 29 -20.5 49.5t-48.5 20.5q-29 0 -49.5 -20.5t-20.5 -49.5v-315q0 -29 20.5 -49.5t49.5 -20.5t49 20.5t20 49.5zM312 840h159 l-140 -140h-157z" />
<glyph unicode="&#xd4;" d="M112 700v140h279v-140h-279zM461 193q0 -87 -61.5 -149t-147.5 -62q-87 0 -148.5 62t-61.5 149v315q0 88 61.5 149t148.5 61q86 0 147.5 -61t61.5 -149v-315zM321 193v315q0 29 -20.5 49.5t-48.5 20.5q-29 0 -49.5 -20.5t-20.5 -49.5v-315q0 -29 20.5 -49.5t49.5 -20.5 t49 20.5t20 49.5z" />
<glyph unicode="&#xd5;" d="M112 700l71 140h279l-71 -140h-279zM461 193q0 -87 -61.5 -149t-147.5 -62q-87 0 -148.5 62t-61.5 149v315q0 88 61.5 149t148.5 61q86 0 147.5 -61t61.5 -149v-315zM321 193v315q0 29 -20.5 49.5t-48.5 20.5q-29 0 -49.5 -20.5t-20.5 -49.5v-315q0 -29 20.5 -49.5 t49.5 -20.5t49 20.5t20 49.5z" />
<glyph unicode="&#xd6;" d="M427 700h-140v140h140v-140zM217 700h-140v140h140v-140zM461 193q0 -87 -61.5 -149t-147.5 -62q-87 0 -148.5 62t-61.5 149v315q0 88 61.5 149t148.5 61q86 0 147.5 -61t61.5 -149v-315zM321 193v315q0 29 -20.5 49.5t-48.5 20.5q-29 0 -49.5 -20.5t-20.5 -49.5v-315 q0 -29 20.5 -49.5t49.5 -20.5t49 20.5t20 49.5z" />
<glyph unicode="&#xd7;" horiz-adv-x="564" d="M518 223l-99 -98l-137 136l-136 -136l-98 99l135 136l-135 136l99 99l135 -136l135 136l100 -99l-136 -136z" />
<glyph unicode="&#xd8;" horiz-adv-x="514" d="M466 193q0 -87 -61 -149t-147 -62q-45 0 -82 17l-44 -139h-75l59 176q-68 65 -68 157v315q0 88 61 149t149 61q34 0 80 -16l43 131l1 7h75l-59 -178q68 -60 68 -154v-315zM258 578q-30 0 -50 -20.5t-20 -49.5v-257l105 318q-2 1 -8 3.5t-10 3.5q-5 0 -6 1q-2 0 -6 0.5 t-5 0.5zM326 450l-103 -318q5 -4 16 -7h6q4 -2 13 -2q28 0 48 20.5t20 49.5v257z" />
<glyph unicode="&#xd9;" d="M104 840h157l140 -140h-157zM461 193q0 -87 -61.5 -149t-147.5 -62q-87 0 -148.5 62t-61.5 149v507h140v-507q0 -29 20.5 -49.5t49.5 -20.5t49 20.5t20 49.5v507h140v-507z" />
<glyph unicode="&#xda;" d="M461 193q0 -87 -61.5 -149t-147.5 -62q-87 0 -148.5 62t-61.5 149v507h140v-507q0 -29 20.5 -49.5t49.5 -20.5t49 20.5t20 49.5v507h140v-507zM242 840h159l-140 -140h-157z" />
<glyph unicode="&#xdb;" d="M112 700v140h279v-140h-279zM461 193q0 -87 -61.5 -149t-147.5 -62q-87 0 -148.5 62t-61.5 149v507h140v-507q0 -29 20.5 -49.5t49.5 -20.5t49 20.5t20 49.5v507h140v-507z" />
<glyph unicode="&#xdc;" d="M427 700h-140v140h140v-140zM217 700h-140v140h140v-140zM461 193q0 -87 -61.5 -149t-147.5 -62q-87 0 -148.5 62t-61.5 149v507h140v-507q0 -29 20.5 -49.5t49.5 -20.5t49 20.5t20 49.5v507h140v-507z" />
<glyph unicode="&#xdd;" d="M473 700l-151 -483v-217h-140v217l-150 483h147l73 -238l74 238h147zM242 840h159l-140 -140h-157z" />
<glyph unicode="&#xde;" horiz-adv-x="549" d="M501 349q0 -103 -70.5 -173.5t-172.5 -70.5h-70v-105h-140v700h140v-103h68q93 0 161 -59.5t82 -150.5q2 -12 2 -38zM256 457h-68v-213h68q45 0 75 30.5t30 75.5v18q-7 38 -36 63.5t-69 25.5z" />
<glyph unicode="&#xdf;" horiz-adv-x="497" d="M450 210q0 -86 -62.5 -148t-148.5 -62h-16v140q33 0 47 7q40 19 40 81q0 23 -15 35t-31 14.5t-41 2.5v140q14 0 25 2.5t18 4.5t12 10t8 11t4 16t1 17v21v23q0 22 -15 37.5t-37 15.5q-24 0 -40 -21q-4 -4 -6.5 -12t-3.5 -14l-1 -6v-15v-25v-12v-18v-131v-6v-20v-7v-15 v-192v-31v-193h-133h-7v665q0 80 56 136.5t135 56.5q12 0 36 -2q67 -13 111.5 -66.5t44.5 -124.5v-52q0 -61 -35 -113q54 -55 54 -150z" />
<glyph unicode="&#xe0;" d="M461 0h-140v210h-139v-210h-140v508q0 88 61.5 149t148.5 61q86 0 147.5 -61t61.5 -149v-508zM321 350v158q0 29 -20.5 49.5t-48.5 20.5q-29 0 -49.5 -20.5t-20.5 -49.5v-158h139zM104 840h157l140 -140h-157z" />
<glyph unicode="&#xe1;" d="M461 0h-140v210h-139v-210h-140v508q0 88 61.5 149t148.5 61q86 0 147.5 -61t61.5 -149v-508zM321 350v158q0 29 -20.5 49.5t-48.5 20.5q-29 0 -49.5 -20.5t-20.5 -49.5v-158h139zM242 840h159l-140 -140h-157z" />
<glyph unicode="&#xe2;" d="M461 0h-140v210h-139v-210h-140v508q0 88 61.5 149t148.5 61q86 0 147.5 -61t61.5 -149v-508zM321 350v158q0 29 -20.5 49.5t-48.5 20.5q-29 0 -49.5 -20.5t-20.5 -49.5v-158h139zM112 700v140h279v-140h-279z" />
<glyph unicode="&#xe3;" d="M77 700l71 140h279l-71 -140h-279zM461 0h-140v210h-139v-210h-140v508q0 88 61.5 149t148.5 61q86 0 147.5 -61t61.5 -149v-508zM321 350v158q0 29 -20.5 49.5t-48.5 20.5q-29 0 -49.5 -20.5t-20.5 -49.5v-158h139z" />
<glyph unicode="&#xe4;" d="M427 700h-140v140h140v-140zM217 700h-140v140h140v-140zM461 0h-140v210h-139v-210h-140v508q0 88 61.5 149t148.5 61q86 0 147.5 -61t61.5 -149v-508zM321 350v158q0 29 -20.5 49.5t-48.5 20.5q-29 0 -49.5 -20.5t-20.5 -49.5v-158h139z" />
<glyph unicode="&#xe5;" d="M461 0h-140v210h-139v-210h-140v508q0 88 61.5 149t148.5 61q86 0 147.5 -61t61.5 -149v-508zM321 350v158q0 29 -20.5 49.5t-48.5 20.5q-29 0 -49.5 -20.5t-20.5 -49.5v-158h139zM356 734q0 -44 -30 -74.5t-74 -30.5t-74.5 30.5t-30.5 74.5q0 43 30.5 74.5t74.5 31.5 q43 0 73.5 -31.5t30.5 -74.5z" />
<glyph unicode="&#xe6;" horiz-adv-x="794" d="M741 193q0 -87 -61.5 -149t-148.5 -62q-86 0 -148 62t-62 149v87h-139v-280h-140v508q0 88 61.5 149t148.5 61q77 0 139 -54q64 54 140 54q87 0 148.5 -62t61.5 -148v-228h-205h-75v-87q0 -29 20.5 -49.5t49.5 -20.5t49.5 20.5t20.5 49.5v17h140v-17zM601 420v88 q0 29 -20.5 49.5t-49.5 20.5t-49.5 -21t-20.5 -49v-88h140zM321 420v88q0 29 -20.5 49.5t-48.5 20.5q-29 0 -49.5 -20.5t-20.5 -49.5v-88h139z" />
<glyph unicode="&#xe7;" d="M175 -140v134q-63 21 -101.5 75.5t-38.5 123.5v315q0 86 61.5 148t148.5 62q86 0 147.5 -62t61.5 -148v-18h-140v18q0 29 -20.5 49.5t-48.5 20.5q-29 0 -49.5 -20.5t-20.5 -49.5v-315q0 -29 20.5 -49.5t49.5 -20.5t49 20.5t20 49.5v17h140v-17q0 -68 -39 -123t-100 -76 v-134h-140z" />
<glyph unicode="&#xe8;" d="M461 193q0 -87 -61.5 -148.5t-147.5 -61.5q-87 0 -148.5 61.5t-61.5 148.5v315q0 86 61.5 148t148.5 62q86 0 147.5 -62t61.5 -148v-228h-279v-87q0 -29 20.5 -49.5t49.5 -20.5t49 20.5t20 49.5v17h140v-17zM321 420v88q0 29 -20.5 49.5t-48.5 20.5q-29 0 -49.5 -20.5 t-20.5 -49.5v-88h139zM104 840h157l140 -140h-157z" />
<glyph unicode="&#xe9;" d="M461 193q0 -87 -61.5 -148.5t-147.5 -61.5q-87 0 -148.5 61.5t-61.5 148.5v315q0 86 61.5 148t148.5 62q86 0 147.5 -62t61.5 -148v-228h-279v-87q0 -29 20.5 -49.5t49.5 -20.5t49 20.5t20 49.5v17h140v-17zM321 420v88q0 29 -20.5 49.5t-48.5 20.5q-29 0 -49.5 -20.5 t-20.5 -49.5v-88h139zM242 840h159l-140 -140h-157z" />
<glyph unicode="&#xea;" d="M461 193q0 -87 -61.5 -148.5t-147.5 -61.5q-87 0 -148.5 61.5t-61.5 148.5v315q0 86 61.5 148t148.5 62q86 0 147.5 -62t61.5 -148v-228h-279v-87q0 -29 20.5 -49.5t49.5 -20.5t49 20.5t20 49.5v17h140v-17zM321 420v88q0 29 -20.5 49.5t-48.5 20.5q-29 0 -49.5 -20.5 t-20.5 -49.5v-88h139zM112 700v140h279v-140h-279z" />
<glyph unicode="&#xeb;" d="M427 700h-140v140h140v-140zM217 700h-140v140h140v-140zM461 193q0 -87 -61.5 -148.5t-147.5 -61.5q-87 0 -148.5 61.5t-61.5 148.5v315q0 86 61.5 148t148.5 62q86 0 147.5 -62t61.5 -148v-228h-279v-87q0 -29 20.5 -49.5t49.5 -20.5t49 20.5t20 49.5v17h140v-17z M321 420v88q0 29 -20.5 49.5t-48.5 20.5q-29 0 -49.5 -20.5t-20.5 -49.5v-88h139z" />
<glyph unicode="&#xec;" horiz-adv-x="364" d="M322 0h-280v140h70v420h-70v140h280v-140h-70v-420h70v-140zM34 840h156l141 -140h-157z" />
<glyph unicode="&#xed;" horiz-adv-x="364" d="M322 0h-280v140h70v420h-70v140h280v-140h-70v-420h70v-140zM172 840h159l-141 -140h-156z" />
<glyph unicode="&#xee;" horiz-adv-x="364" d="M322 0h-280v140h70v420h-70v140h280v-140h-70v-420h70v-140zM43 700v140h279v-140h-279z" />
<glyph unicode="&#xef;" horiz-adv-x="364" d="M357 700h-140v140h140v-140zM147 700h-140v140h140v-140zM322 0h-280v140h70v420h-70v140h280v-140h-70v-420h70v-140z" />
<glyph unicode="&#xf0;" d="M42 193v35q0 88 61.5 149t148.5 61q33 0 69 -12v82q0 29 -20.5 49.5t-48.5 20.5q-29 0 -49.5 -20.5t-20.5 -49.5v-18h-140v18q0 86 61.5 148t148.5 62q86 0 147.5 -62t61.5 -148v-271v-9v-35q0 -87 -61.5 -149t-147.5 -62q-87 0 -148.5 62t-61.5 149zM182 228v-35 q0 -29 20.5 -49.5t49.5 -20.5t49 20.5t20 49.5v35q0 29 -20.5 49.5t-48.5 20.5q-29 0 -49.5 -20.5t-20.5 -49.5z" />
<glyph unicode="&#xf1;" d="M77 700l71 140h279l-71 -140h-279zM461 0h-140v508q0 29 -20.5 49.5t-48.5 20.5q-29 0 -49.5 -20.5t-20.5 -49.5v-508h-140v508q0 88 61.5 149t148.5 61q86 0 147.5 -61t61.5 -149v-508z" />
<glyph unicode="&#xf2;" d="M104 840h157l140 -140h-157zM461 193q0 -87 -61.5 -149t-147.5 -62q-87 0 -148.5 62t-61.5 149v315q0 88 61.5 149t148.5 61q86 0 147.5 -61t61.5 -149v-315zM321 193v315q0 29 -20.5 49.5t-48.5 20.5q-29 0 -49.5 -20.5t-20.5 -49.5v-315q0 -29 20.5 -49.5t49.5 -20.5 t49 20.5t20 49.5z" />
<glyph unicode="&#xf3;" d="M461 193q0 -87 -61.5 -149t-147.5 -62q-87 0 -148.5 62t-61.5 149v315q0 88 61.5 149t148.5 61q86 0 147.5 -61t61.5 -149v-315zM321 193v315q0 29 -20.5 49.5t-48.5 20.5q-29 0 -49.5 -20.5t-20.5 -49.5v-315q0 -29 20.5 -49.5t49.5 -20.5t49 20.5t20 49.5zM242 840h159 l-140 -140h-157z" />
<glyph unicode="&#xf4;" d="M112 700v140h279v-140h-279zM461 193q0 -87 -61.5 -149t-147.5 -62q-87 0 -148.5 62t-61.5 149v315q0 88 61.5 149t148.5 61q86 0 147.5 -61t61.5 -149v-315zM321 193v315q0 29 -20.5 49.5t-48.5 20.5q-29 0 -49.5 -20.5t-20.5 -49.5v-315q0 -29 20.5 -49.5t49.5 -20.5 t49 20.5t20 49.5z" />
<glyph unicode="&#xf5;" d="M77 700l71 140h279l-71 -140h-279zM461 193q0 -87 -61.5 -149t-147.5 -62q-87 0 -148.5 62t-61.5 149v315q0 88 61.5 149t148.5 61q86 0 147.5 -61t61.5 -149v-315zM321 193v315q0 29 -20.5 49.5t-48.5 20.5q-29 0 -49.5 -20.5t-20.5 -49.5v-315q0 -29 20.5 -49.5 t49.5 -20.5t49 20.5t20 49.5z" />
<glyph unicode="&#xf6;" d="M427 700h-140v140h140v-140zM217 700h-140v140h140v-140zM461 193q0 -87 -61.5 -149t-147.5 -62q-87 0 -148.5 62t-61.5 149v315q0 88 61.5 149t148.5 61q86 0 147.5 -61t61.5 -149v-315zM321 193v315q0 29 -20.5 49.5t-48.5 20.5q-29 0 -49.5 -20.5t-20.5 -49.5v-315 q0 -29 20.5 -49.5t49.5 -20.5t49 20.5t20 49.5z" />
<glyph unicode="&#xf7;" horiz-adv-x="550" d="M346 490h-140v140h140v-140zM346 70h-140v140h140v-140zM504 280h-456v140h456v-140z" />
<glyph unicode="&#xf8;" horiz-adv-x="514" d="M466 193q0 -87 -61 -149t-147 -62q-45 0 -82 17l-44 -139h-75l59 176q-68 65 -68 157v315q0 88 61 149t149 61q34 0 80 -16l43 131l1 7h75l-59 -178q68 -60 68 -154v-315zM258 578q-30 0 -50 -20.5t-20 -49.5v-257l105 318q-2 1 -8 3.5t-10 3.5q-5 0 -6 1q-2 0 -6 0.5 t-5 0.5zM326 450l-103 -318q5 -4 16 -7h6q4 -2 13 -2q28 0 48 20.5t20 49.5v257z" />
<glyph unicode="&#xf9;" d="M104 840h157l140 -140h-157zM461 193q0 -87 -61.5 -149t-147.5 -62q-87 0 -148.5 62t-61.5 149v507h140v-507q0 -29 20.5 -49.5t49.5 -20.5t49 20.5t20 49.5v507h140v-507z" />
<glyph unicode="&#xfa;" d="M461 193q0 -87 -61.5 -149t-147.5 -62q-87 0 -148.5 62t-61.5 149v507h140v-507q0 -29 20.5 -49.5t49.5 -20.5t49 20.5t20 49.5v507h140v-507zM242 840h159l-140 -140h-157z" />
<glyph unicode="&#xfb;" d="M112 700v140h279v-140h-279zM461 193q0 -87 -61.5 -149t-147.5 -62q-87 0 -148.5 62t-61.5 149v507h140v-507q0 -29 20.5 -49.5t49.5 -20.5t49 20.5t20 49.5v507h140v-507z" />
<glyph unicode="&#xfc;" d="M427 700h-140v140h140v-140zM217 700h-140v140h140v-140zM461 193q0 -87 -61.5 -149t-147.5 -62q-87 0 -148.5 62t-61.5 149v507h140v-507q0 -29 20.5 -49.5t49.5 -20.5t49 20.5t20 49.5v507h140v-507z" />
<glyph unicode="&#xfd;" d="M461 455q0 -67 -38.5 -121.5t-101.5 -77.5v-256h-139v256q-63 23 -101.5 77.5t-38.5 121.5v245h140v-245q0 -29 20.5 -49.5t49.5 -20.5q28 0 48.5 20.5t20.5 49.5v245h140v-245zM242 840h159l-140 -140h-157z" />
<glyph unicode="&#xfe;" horiz-adv-x="514" d="M466 245q0 -101 -71.5 -173t-171.5 -72h-35v-140h-140v980h140v-140h35q100 0 171.5 -72t71.5 -173v-210zM326 245v210q0 44 -30 74.5t-73 30.5h-35v-420h35q43 0 73 31t30 74z" />
<glyph unicode="&#xff;" d="M427 700h-140v140h140v-140zM217 700h-140v140h140v-140zM461 455q0 -67 -38.5 -121.5t-101.5 -77.5v-256h-139v256q-63 23 -101.5 77.5t-38.5 121.5v245h140v-245q0 -29 20.5 -49.5t49.5 -20.5q28 0 48.5 20.5t20.5 49.5v245h140v-245z" />
<glyph unicode="&#x152;" horiz-adv-x="784" d="M741 193q0 -87 -61.5 -149t-148.5 -62q-80 0 -140 54q-59 -54 -139 -54q-87 0 -148.5 62t-61.5 149v315q0 86 61.5 148t148.5 62q77 0 139 -54q64 54 140 54q87 0 148.5 -62t61.5 -148v-228h-280v-87q0 -29 20.5 -49.5t49.5 -20.5t49.5 20.5t20.5 49.5v17h140v-17z M601 420v88q0 29 -20.5 49.5t-49.5 20.5t-49.5 -21t-20.5 -49v-88h140zM321 193v315q0 29 -20.5 49.5t-48.5 20.5q-29 0 -49.5 -20.5t-20.5 -49.5v-315q0 -29 20.5 -49.5t49.5 -20.5t49 20.5t20 49.5z" />
<glyph unicode="&#x153;" horiz-adv-x="784" d="M741 193q0 -87 -61.5 -149t-148.5 -62q-80 0 -140 54q-59 -54 -139 -54q-87 0 -148.5 62t-61.5 149v315q0 86 61.5 148t148.5 62q77 0 139 -54q64 54 140 54q87 0 148.5 -62t61.5 -148v-228h-280v-87q0 -29 20.5 -49.5t49.5 -20.5t49.5 20.5t20.5 49.5v17h140v-17z M601 420v88q0 29 -20.5 49.5t-49.5 20.5t-49.5 -21t-20.5 -49v-88h140zM321 193v315q0 29 -20.5 49.5t-48.5 20.5q-29 0 -49.5 -20.5t-20.5 -49.5v-315q0 -29 20.5 -49.5t49.5 -20.5t49 20.5t20 49.5z" />
<glyph unicode="&#x178;" d="M428 778h-140v140h140v-140zM218 778h-140v140h140v-140zM473 700l-151 -483v-217h-140v217l-150 483h147l73 -238l74 238h147z" />
<glyph unicode="&#x2c6;" horiz-adv-x="514" d="M112 700v140h279v-140h-279z" />
<glyph unicode="&#x2dc;" horiz-adv-x="514" d="M77 700l71 140h279l-71 -140h-279z" />
<glyph unicode="&#x2000;" horiz-adv-x="490" />
<glyph unicode="&#x2001;" horiz-adv-x="980" />
<glyph unicode="&#x2002;" horiz-adv-x="490" />
<glyph unicode="&#x2003;" horiz-adv-x="980" />
<glyph unicode="&#x2004;" horiz-adv-x="326" />
<glyph unicode="&#x2005;" horiz-adv-x="245" />
<glyph unicode="&#x2006;" horiz-adv-x="163" />
<glyph unicode="&#x2007;" horiz-adv-x="163" />
<glyph unicode="&#x2008;" horiz-adv-x="122" />
<glyph unicode="&#x2009;" horiz-adv-x="196" />
<glyph unicode="&#x200a;" horiz-adv-x="54" />
<glyph unicode="&#x2010;" d="M462 280h-420v140h420v-140z" />
<glyph unicode="&#x2011;" d="M462 280h-420v140h420v-140z" />
<glyph unicode="&#x2013;" d="M462 280h-420v140h420v-140z" />
<glyph unicode="&#x2014;" horiz-adv-x="924" d="M882 280h-840v140h840v-140z" />
<glyph unicode="&#x2018;" horiz-adv-x="514" d="M42 840h157l140 -140h-157z" />
<glyph unicode="&#x2019;" horiz-adv-x="259" d="M216 560q0 -56 -29 -105t-79 -78l-80 117q21 8 34.5 25.5t13.5 40.5v140h140v-140z" />
<glyph unicode="&#x201a;" horiz-adv-x="259" d="M216 0q0 -57 -29 -106t-79 -77l-80 117q21 8 34.5 25.5t13.5 40.5v140h140v-140z" />
<glyph unicode="&#x201c;" horiz-adv-x="469" d="M427 494l-80 -117q-50 28 -79 77.5t-29 105.5v140h141v-140q0 -50 47 -66zM217 494l-80 -117q-50 28 -79 77.5t-29 105.5v140h140v-140q0 -49 48 -66z" />
<glyph unicode="&#x201d;" horiz-adv-x="469" d="M109 377l-80 117q48 16 48 66v140h140v-140q0 -56 -29 -105.5t-79 -77.5zM319 377l-80 117q48 16 48 66v140h140v-140q0 -57 -28.5 -106t-79.5 -77z" />
<glyph unicode="&#x201e;" horiz-adv-x="259" d="M122 -185l-80 118q48 17 48 66v140h140v-140q0 -57 -29 -106.5t-79 -77.5zM332 -185l-80 118q48 16 48 66v140h140v-140q0 -57 -29 -106.5t-79 -77.5z" />
<glyph unicode="&#x2022;" horiz-adv-x="374" d="M326 350q0 -58 -41 -99t-97 -41q-58 0 -99 41t-41 99t41 99t99 41q56 0 97 -41t41 -99z" />
<glyph unicode="&#x2026;" horiz-adv-x="784" d="M182 0h-140v140h140v-140zM461 0h-140v140h140v-140zM741 0h-140v140h140v-140z" />
<glyph unicode="&#x202f;" horiz-adv-x="196" />
<glyph unicode="&#x2039;" horiz-adv-x="350" d="M7 350l140 210h165l-138 -210l138 -210h-165z" />
<glyph unicode="&#x203a;" horiz-adv-x="350" d="M172 560l140 -210l-140 -210h-165l139 210l-139 210h165z" />
<glyph unicode="&#x205f;" horiz-adv-x="245" />
<glyph unicode="&#x20ac;" horiz-adv-x="584" d="M326 718q87 0 148.5 -61.5t61.5 -148.5v-18h-140v18q0 29 -20 49.5t-50 20.5q-28 0 -48 -20.5t-20 -49.5v-88h138v-140h-14h-124v-87q0 -29 20 -49.5t48 -20.5q30 0 50 20.5t20 49.5v20h140v-16v-1q0 -20 -1 -29q0 -3 -0.5 -7.5t-0.5 -6.5q-1 -2 -2.5 -6.5t-2.5 -6.5 q0 -2 -2 -14q-21 -64 -75.5 -103.5t-125.5 -39.5q-86 0 -147 61.5t-61 148.5v87h-70v140h70v88q0 86 61 148t147 62z" />
<glyph unicode="&#x2122;" horiz-adv-x="794" d="M746 350h-70v228l-72 -155h-63l-75 155v-228h-70v350h91l84 -180l86 180h89v-350zM326 630h-103v-280h-70v280h-105v70h278v-70z" />
</font>
</defs>
</svg>
